<svg width="24" height="24" viewBox="0 0 24 24" fill="none" xmlns="http://www.w3.org/2000/svg">
<path d="M12.0117 23.1535C11.0458 23.1535 9.94373 22.7879 8.73605 22.0668C7.79117 21.5027 6.80225 20.7255 5.95121 19.8783C4.51901 18.4174 3.40493 16.6363 2.72177 14.7202L2.67041 14.5762V3.8747L3.64565 3.88262C4.74919 3.88306 5.84477 3.69583 6.88553 3.32894L6.90617 3.32198C8.54474 2.79111 10.0942 2.01703 11.5028 1.02566L11.993 0.680664L12.4949 1.00838C13.9462 1.95533 15.5012 2.73285 17.1294 3.3257C17.9426 3.58838 18.6927 3.76334 19.3633 3.84698C19.6445 3.88202 19.8953 3.89978 20.1088 3.89978H20.1089C20.1872 3.89978 20.2565 3.89726 20.3168 3.89294L20.3489 3.89018L21.3528 3.74582V14.5757L21.3018 14.7195C20.6198 16.6374 19.5054 18.4189 18.0791 19.8712C17.221 20.7247 16.2325 21.5014 15.2888 22.065C14.0799 22.7874 12.9773 23.1535 12.0117 23.1535ZM11.9647 2.84882C10.5655 3.76102 9.05208 4.48451 7.46357 5.00054C6.52292 5.3307 5.54344 5.5375 4.54961 5.61578L4.43909 5.62454V14.2675L4.44665 14.2878C5.05493 15.9219 5.98205 17.3823 7.20221 18.6281C8.86073 20.2775 10.7931 21.385 12.0117 21.385C13.229 21.385 15.1615 20.2775 16.8206 18.6288C18.0429 17.3831 18.9698 15.9231 19.5769 14.2882L19.5844 14.268V5.64746L19.4752 5.63762C19.3648 5.62767 19.2546 5.61578 19.1446 5.60198C18.3588 5.50406 17.4933 5.30294 16.5718 5.00426L16.5428 4.9943C14.9909 4.43058 13.5001 3.71115 12.0932 2.84702L12.0285 2.80718L11.9647 2.84882ZM7.49453 12.6709C7.41216 12.589 7.34686 12.4916 7.3024 12.3842C7.25795 12.2769 7.23524 12.1618 7.23557 12.0456C7.23557 11.8095 7.32749 11.5873 7.49453 11.4203C7.66157 11.2533 7.88357 11.1613 8.11985 11.1613C8.35613 11.1613 8.57813 11.2534 8.74517 11.4203L11.0413 13.7164L15.6453 9.11222C15.8124 8.94518 16.0345 8.85326 16.2707 8.85326C16.507 8.85326 16.729 8.94518 16.896 9.11222C17.2408 9.4571 17.2408 10.0181 16.896 10.3629L11.0413 16.2177L7.49453 12.6709Z" fill="black"/>
</svg>
