<svg width="1920" height="1158" viewBox="0 0 1920 1158" fill="none" xmlns="http://www.w3.org/2000/svg">
<g filter="url(#filter0_d_1_6925)">
<mask id="path-1-inside-1_1_6925" fill="white">
<path d="M0 0H127.778V127.778H0V0Z"/>
<path d="M127.778 0H255.556V127.778H127.778V0Z"/>
<path d="M255.556 0H383.333V127.778H255.556V0Z"/>
<path d="M383.333 0H511.111V127.778H383.333V0Z"/>
<path d="M511.111 0H638.889V127.778H511.111V0Z"/>
<path d="M638.889 0H766.667V127.778H638.889V0Z"/>
<path d="M766.667 0H894.444V127.778H766.667V0Z"/>
<path d="M894.444 0H1022.22V127.778H894.444V0Z"/>
<path d="M1022.22 0H1150V127.778H1022.22V0Z"/>
<path d="M1150 0H1277.78V127.778H1150V0Z"/>
<path d="M1277.78 0H1405.56V127.778H1277.78V0Z"/>
<path d="M1405.56 0H1533.33V127.778H1405.56V0Z"/>
<path d="M1533.33 0H1661.11V127.778H1533.33V0Z"/>
<path d="M1661.11 0H1788.89V127.778H1661.11V0Z"/>
<path d="M1788.89 0H1916.67V127.778H1788.89V0Z"/>
<path d="M0 127.778H127.778V255.556H0V127.778Z"/>
<path d="M127.778 127.778H255.556V255.556H127.778V127.778Z"/>
<path d="M255.556 127.778H383.333V255.556H255.556V127.778Z"/>
<path d="M383.333 127.778H511.111V255.556H383.333V127.778Z"/>
<path d="M511.111 127.778H638.889V255.556H511.111V127.778Z"/>
<path d="M638.889 127.778H766.667V255.556H638.889V127.778Z"/>
<path d="M766.667 127.778H894.444V255.556H766.667V127.778Z"/>
<path d="M894.444 127.778H1022.22V255.556H894.444V127.778Z"/>
<path d="M1022.22 127.778H1150V255.556H1022.22V127.778Z"/>
<path d="M1150 127.778H1277.78V255.556H1150V127.778Z"/>
<path d="M1277.78 127.778H1405.56V255.556H1277.78V127.778Z"/>
<path d="M1405.56 127.778H1533.33V255.556H1405.56V127.778Z"/>
<path d="M1533.33 127.778H1661.11V255.556H1533.33V127.778Z"/>
<path d="M1661.11 127.778H1788.89V255.556H1661.11V127.778Z"/>
<path d="M1788.89 127.778H1916.67V255.556H1788.89V127.778Z"/>
<path d="M0 255.556H127.778V383.333H0V255.556Z"/>
<path d="M127.778 255.556H255.556V383.333H127.778V255.556Z"/>
<path d="M255.556 255.556H383.333V383.333H255.556V255.556Z"/>
<path d="M383.333 255.556H511.111V383.333H383.333V255.556Z"/>
<path d="M511.111 255.556H638.889V383.333H511.111V255.556Z"/>
<path d="M638.889 255.556H766.667V383.333H638.889V255.556Z"/>
<path d="M766.667 255.556H894.444V383.333H766.667V255.556Z"/>
<path d="M894.444 255.556H1022.22V383.333H894.444V255.556Z"/>
<path d="M1022.22 255.556H1150V383.333H1022.22V255.556Z"/>
<path d="M1150 255.556H1277.78V383.333H1150V255.556Z"/>
<path d="M1277.78 255.556H1405.56V383.333H1277.78V255.556Z"/>
<path d="M1405.56 255.556H1533.33V383.333H1405.56V255.556Z"/>
<path d="M1533.33 255.556H1661.11V383.333H1533.33V255.556Z"/>
<path d="M1661.11 255.556H1788.89V383.333H1661.11V255.556Z"/>
<path d="M1788.89 255.556H1916.67V383.333H1788.89V255.556Z"/>
<path d="M0 383.333H127.778V511.111H0V383.333Z"/>
<path d="M127.778 383.333H255.556V511.111H127.778V383.333Z"/>
<path d="M255.556 383.333H383.333V511.111H255.556V383.333Z"/>
<path d="M383.333 383.333H511.111V511.111H383.333V383.333Z"/>
<path d="M511.111 383.333H638.889V511.111H511.111V383.333Z"/>
<path d="M638.889 383.333H766.667V511.111H638.889V383.333Z"/>
<path d="M766.667 383.333H894.444V511.111H766.667V383.333Z"/>
<path d="M894.444 383.333H1022.22V511.111H894.444V383.333Z"/>
<path d="M1022.22 383.333H1150V511.111H1022.22V383.333Z"/>
<path d="M1150 383.333H1277.78V511.111H1150V383.333Z"/>
<path d="M1277.78 383.333H1405.56V511.111H1277.78V383.333Z"/>
<path d="M1405.56 383.333H1533.33V511.111H1405.56V383.333Z"/>
<path d="M1533.33 383.333H1661.11V511.111H1533.33V383.333Z"/>
<path d="M1661.11 383.333H1788.89V511.111H1661.11V383.333Z"/>
<path d="M1788.89 383.333H1916.67V511.111H1788.89V383.333Z"/>
<path d="M0 511.111H127.778V638.889H0V511.111Z"/>
<path d="M127.778 511.111H255.556V638.889H127.778V511.111Z"/>
<path d="M255.556 511.111H383.333V638.889H255.556V511.111Z"/>
<path d="M383.333 511.111H511.111V638.889H383.333V511.111Z"/>
<path d="M511.111 511.111H638.889V638.889H511.111V511.111Z"/>
<path d="M638.889 511.111H766.667V638.889H638.889V511.111Z"/>
<path d="M766.667 511.111H894.444V638.889H766.667V511.111Z"/>
<path d="M894.444 511.111H1022.22V638.889H894.444V511.111Z"/>
<path d="M1022.22 511.111H1150V638.889H1022.22V511.111Z"/>
<path d="M1150 511.111H1277.78V638.889H1150V511.111Z"/>
<path d="M1277.78 511.111H1405.56V638.889H1277.78V511.111Z"/>
<path d="M1405.56 511.111H1533.33V638.889H1405.56V511.111Z"/>
<path d="M1533.33 511.111H1661.11V638.889H1533.33V511.111Z"/>
<path d="M1661.11 511.111H1788.89V638.889H1661.11V511.111Z"/>
<path d="M1788.89 511.111H1916.67V638.889H1788.89V511.111Z"/>
<path d="M0 638.889H127.778V766.667H0V638.889Z"/>
<path d="M127.778 638.889H255.556V766.667H127.778V638.889Z"/>
<path d="M255.556 638.889H383.333V766.667H255.556V638.889Z"/>
<path d="M383.333 638.889H511.111V766.667H383.333V638.889Z"/>
<path d="M511.111 638.889H638.889V766.667H511.111V638.889Z"/>
<path d="M638.889 638.889H766.667V766.667H638.889V638.889Z"/>
<path d="M766.667 638.889H894.444V766.667H766.667V638.889Z"/>
<path d="M894.444 638.889H1022.22V766.667H894.444V638.889Z"/>
<path d="M1022.22 638.889H1150V766.667H1022.22V638.889Z"/>
<path d="M1150 638.889H1277.78V766.667H1150V638.889Z"/>
<path d="M1277.78 638.889H1405.56V766.667H1277.78V638.889Z"/>
<path d="M1405.56 638.889H1533.33V766.667H1405.56V638.889Z"/>
<path d="M1533.33 638.889H1661.11V766.667H1533.33V638.889Z"/>
<path d="M1661.11 638.889H1788.89V766.667H1661.11V638.889Z"/>
<path d="M1788.89 638.889H1916.67V766.667H1788.89V638.889Z"/>
<path d="M0 766.667H127.778V894.444H0V766.667Z"/>
<path d="M127.778 766.667H255.556V894.444H127.778V766.667Z"/>
<path d="M255.556 766.667H383.333V894.444H255.556V766.667Z"/>
<path d="M383.333 766.667H511.111V894.444H383.333V766.667Z"/>
<path d="M511.111 766.667H638.889V894.444H511.111V766.667Z"/>
<path d="M638.889 766.667H766.667V894.444H638.889V766.667Z"/>
<path d="M766.667 766.667H894.444V894.444H766.667V766.667Z"/>
<path d="M894.444 766.667H1022.22V894.444H894.444V766.667Z"/>
<path d="M1022.22 766.667H1150V894.444H1022.22V766.667Z"/>
<path d="M1150 766.667H1277.78V894.444H1150V766.667Z"/>
<path d="M1277.78 766.667H1405.56V894.444H1277.78V766.667Z"/>
<path d="M1405.56 766.667H1533.33V894.444H1405.56V766.667Z"/>
<path d="M1533.33 766.667H1661.11V894.444H1533.33V766.667Z"/>
<path d="M1661.11 766.667H1788.89V894.444H1661.11V766.667Z"/>
<path d="M1788.89 766.667H1916.67V894.444H1788.89V766.667Z"/>
<path d="M0 894.444H127.778V1022.22H0V894.444Z"/>
<path d="M127.778 894.444H255.556V1022.22H127.778V894.444Z"/>
<path d="M255.556 894.444H383.333V1022.22H255.556V894.444Z"/>
<path d="M383.333 894.444H511.111V1022.22H383.333V894.444Z"/>
<path d="M511.111 894.444H638.889V1022.22H511.111V894.444Z"/>
<path d="M638.889 894.444H766.667V1022.22H638.889V894.444Z"/>
<path d="M766.667 894.444H894.444V1022.22H766.667V894.444Z"/>
<path d="M894.444 894.444H1022.22V1022.22H894.444V894.444Z"/>
<path d="M1022.22 894.444H1150V1022.22H1022.22V894.444Z"/>
<path d="M1150 894.444H1277.78V1022.22H1150V894.444Z"/>
<path d="M1277.78 894.444H1405.56V1022.22H1277.78V894.444Z"/>
<path d="M1405.56 894.444H1533.33V1022.22H1405.56V894.444Z"/>
<path d="M1533.33 894.444H1661.11V1022.22H1533.33V894.444Z"/>
<path d="M1661.11 894.444H1788.89V1022.22H1661.11V894.444Z"/>
<path d="M1788.89 894.444H1916.67V1022.22H1788.89V894.444Z"/>
<path d="M0 1022.22H127.778V1150H0V1022.22Z"/>
<path d="M127.778 1022.22H255.556V1150H127.778V1022.22Z"/>
<path d="M255.556 1022.22H383.333V1150H255.556V1022.22Z"/>
<path d="M383.333 1022.22H511.111V1150H383.333V1022.22Z"/>
<path d="M511.111 1022.22H638.889V1150H511.111V1022.22Z"/>
<path d="M638.889 1022.22H766.667V1150H638.889V1022.22Z"/>
<path d="M766.667 1022.22H894.444V1150H766.667V1022.22Z"/>
<path d="M894.444 1022.22H1022.22V1150H894.444V1022.22Z"/>
<path d="M1022.22 1022.22H1150V1150H1022.22V1022.22Z"/>
<path d="M1150 1022.22H1277.78V1150H1150V1022.22Z"/>
<path d="M1277.78 1022.22H1405.56V1150H1277.78V1022.22Z"/>
<path d="M1405.56 1022.22H1533.33V1150H1405.56V1022.22Z"/>
<path d="M1533.33 1022.22H1661.11V1150H1533.33V1022.22Z"/>
<path d="M1661.11 1022.22H1788.89V1150H1661.11V1022.22Z"/>
<path d="M1788.89 1022.22H1916.67V1150H1788.89V1022.22Z"/>
</mask>
<path d="M127.139 0V127.778H128.417V0H127.139ZM127.778 127.139H0V128.417H127.778V127.139ZM254.917 0V127.778H256.194V0H254.917ZM255.556 127.139H127.778V128.417H255.556V127.139ZM382.694 0V127.778H383.972V0H382.694ZM383.333 127.139H255.556V128.417H383.333V127.139ZM510.472 0V127.778H511.75V0H510.472ZM511.111 127.139H383.333V128.417H511.111V127.139ZM638.25 0V127.778H639.528V0H638.25ZM638.889 127.139H511.111V128.417H638.889V127.139ZM766.028 0V127.778H767.306V0H766.028ZM766.667 127.139H638.889V128.417H766.667V127.139ZM893.806 0V127.778H895.083V0H893.806ZM894.444 127.139H766.667V128.417H894.444V127.139ZM1021.58 0V127.778H1022.86V0H1021.58ZM1022.22 127.139H894.444V128.417H1022.22V127.139ZM1149.36 0V127.778H1150.64V0H1149.36ZM1150 127.139H1022.22V128.417H1150V127.139ZM1277.14 0V127.778H1278.42V0H1277.14ZM1277.78 127.139H1150V128.417H1277.78V127.139ZM1404.92 0V127.778H1406.19V0H1404.92ZM1405.56 127.139H1277.78V128.417H1405.56V127.139ZM1532.69 0V127.778H1533.97V0H1532.69ZM1533.33 127.139H1405.56V128.417H1533.33V127.139ZM1660.47 0V127.778H1661.75V0H1660.47ZM1661.11 127.139H1533.33V128.417H1661.11V127.139ZM1788.25 0V127.778H1789.53V0H1788.25ZM1788.89 127.139H1661.11V128.417H1788.89V127.139ZM1916.67 127.139H1788.89V128.417H1916.67V127.139ZM127.139 127.778V255.556H128.417V127.778H127.139ZM127.778 254.917H0V256.194H127.778V254.917ZM254.917 127.778V255.556H256.194V127.778H254.917ZM255.556 254.917H127.778V256.194H255.556V254.917ZM382.694 127.778V255.556H383.972V127.778H382.694ZM383.333 254.917H255.556V256.194H383.333V254.917ZM510.472 127.778V255.556H511.75V127.778H510.472ZM511.111 254.917H383.333V256.194H511.111V254.917ZM638.25 127.778V255.556H639.528V127.778H638.25ZM638.889 254.917H511.111V256.194H638.889V254.917ZM766.028 127.778V255.556H767.306V127.778H766.028ZM766.667 254.917H638.889V256.194H766.667V254.917ZM893.806 127.778V255.556H895.083V127.778H893.806ZM894.444 254.917H766.667V256.194H894.444V254.917ZM1021.58 127.778V255.556H1022.86V127.778H1021.58ZM1022.22 254.917H894.444V256.194H1022.22V254.917ZM1149.36 127.778V255.556H1150.64V127.778H1149.36ZM1150 254.917H1022.22V256.194H1150V254.917ZM1277.14 127.778V255.556H1278.42V127.778H1277.14ZM1277.78 254.917H1150V256.194H1277.78V254.917ZM1404.92 127.778V255.556H1406.19V127.778H1404.92ZM1405.56 254.917H1277.78V256.194H1405.56V254.917ZM1532.69 127.778V255.556H1533.97V127.778H1532.69ZM1533.33 254.917H1405.56V256.194H1533.33V254.917ZM1660.47 127.778V255.556H1661.75V127.778H1660.47ZM1661.11 254.917H1533.33V256.194H1661.11V254.917ZM1788.25 127.778V255.556H1789.53V127.778H1788.25ZM1788.89 254.917H1661.11V256.194H1788.89V254.917ZM1916.67 254.917H1788.89V256.194H1916.67V254.917ZM127.139 255.556V383.333H128.417V255.556H127.139ZM127.778 382.694H0V383.972H127.778V382.694ZM254.917 255.556V383.333H256.194V255.556H254.917ZM255.556 382.694H127.778V383.972H255.556V382.694ZM382.694 255.556V383.333H383.972V255.556H382.694ZM383.333 382.694H255.556V383.972H383.333V382.694ZM510.472 255.556V383.333H511.75V255.556H510.472ZM511.111 382.694H383.333V383.972H511.111V382.694ZM638.25 255.556V383.333H639.528V255.556H638.25ZM638.889 382.694H511.111V383.972H638.889V382.694ZM766.028 255.556V383.333H767.306V255.556H766.028ZM766.667 382.694H638.889V383.972H766.667V382.694ZM893.806 255.556V383.333H895.083V255.556H893.806ZM894.444 382.694H766.667V383.972H894.444V382.694ZM1021.58 255.556V383.333H1022.86V255.556H1021.58ZM1022.22 382.694H894.444V383.972H1022.22V382.694ZM1149.36 255.556V383.333H1150.64V255.556H1149.36ZM1150 382.694H1022.22V383.972H1150V382.694ZM1277.14 255.556V383.333H1278.42V255.556H1277.14ZM1277.78 382.694H1150V383.972H1277.78V382.694ZM1404.92 255.556V383.333H1406.19V255.556H1404.92ZM1405.56 382.694H1277.78V383.972H1405.56V382.694ZM1532.69 255.556V383.333H1533.97V255.556H1532.69ZM1533.33 382.694H1405.56V383.972H1533.33V382.694ZM1660.47 255.556V383.333H1661.75V255.556H1660.47ZM1661.11 382.694H1533.33V383.972H1661.11V382.694ZM1788.25 255.556V383.333H1789.53V255.556H1788.25ZM1788.89 382.694H1661.11V383.972H1788.89V382.694ZM1916.67 382.694H1788.89V383.972H1916.67V382.694ZM127.139 383.333V511.111H128.417V383.333H127.139ZM127.778 510.472H0V511.75H127.778V510.472ZM254.917 383.333V511.111H256.194V383.333H254.917ZM255.556 510.472H127.778V511.75H255.556V510.472ZM382.694 383.333V511.111H383.972V383.333H382.694ZM383.333 510.472H255.556V511.75H383.333V510.472ZM510.472 383.333V511.111H511.75V383.333H510.472ZM511.111 510.472H383.333V511.75H511.111V510.472ZM638.25 383.333V511.111H639.528V383.333H638.25ZM638.889 510.472H511.111V511.75H638.889V510.472ZM766.028 383.333V511.111H767.306V383.333H766.028ZM766.667 510.472H638.889V511.75H766.667V510.472ZM893.806 383.333V511.111H895.083V383.333H893.806ZM894.444 510.472H766.667V511.75H894.444V510.472ZM1021.58 383.333V511.111H1022.86V383.333H1021.58ZM1022.22 510.472H894.444V511.75H1022.22V510.472ZM1149.36 383.333V511.111H1150.64V383.333H1149.36ZM1150 510.472H1022.22V511.75H1150V510.472ZM1277.14 383.333V511.111H1278.42V383.333H1277.14ZM1277.78 510.472H1150V511.75H1277.78V510.472ZM1404.92 383.333V511.111H1406.19V383.333H1404.92ZM1405.56 510.472H1277.78V511.75H1405.56V510.472ZM1532.69 383.333V511.111H1533.97V383.333H1532.69ZM1533.33 510.472H1405.56V511.75H1533.33V510.472ZM1660.47 383.333V511.111H1661.75V383.333H1660.47ZM1661.11 510.472H1533.33V511.75H1661.11V510.472ZM1788.25 383.333V511.111H1789.53V383.333H1788.25ZM1788.89 510.472H1661.11V511.75H1788.89V510.472ZM1916.67 510.472H1788.89V511.75H1916.67V510.472ZM127.139 511.111V638.889H128.417V511.111H127.139ZM127.778 638.25H0V639.528H127.778V638.25ZM254.917 511.111V638.889H256.194V511.111H254.917ZM255.556 638.25H127.778V639.528H255.556V638.25ZM382.694 511.111V638.889H383.972V511.111H382.694ZM383.333 638.25H255.556V639.528H383.333V638.25ZM510.472 511.111V638.889H511.75V511.111H510.472ZM511.111 638.25H383.333V639.528H511.111V638.25ZM638.25 511.111V638.889H639.528V511.111H638.25ZM638.889 638.25H511.111V639.528H638.889V638.25ZM766.028 511.111V638.889H767.306V511.111H766.028ZM766.667 638.25H638.889V639.528H766.667V638.25ZM893.806 511.111V638.889H895.083V511.111H893.806ZM894.444 638.25H766.667V639.528H894.444V638.25ZM1021.58 511.111V638.889H1022.86V511.111H1021.58ZM1022.22 638.25H894.444V639.528H1022.22V638.25ZM1149.36 511.111V638.889H1150.64V511.111H1149.36ZM1150 638.25H1022.22V639.528H1150V638.25ZM1277.14 511.111V638.889H1278.42V511.111H1277.14ZM1277.78 638.25H1150V639.528H1277.78V638.25ZM1404.92 511.111V638.889H1406.19V511.111H1404.92ZM1405.56 638.25H1277.78V639.528H1405.56V638.25ZM1532.69 511.111V638.889H1533.97V511.111H1532.69ZM1533.33 638.25H1405.56V639.528H1533.33V638.25ZM1660.47 511.111V638.889H1661.75V511.111H1660.47ZM1661.11 638.25H1533.33V639.528H1661.11V638.25ZM1788.25 511.111V638.889H1789.53V511.111H1788.25ZM1788.89 638.25H1661.11V639.528H1788.89V638.25ZM1916.67 638.25H1788.89V639.528H1916.67V638.25ZM127.139 638.889V766.667H128.417V638.889H127.139ZM127.778 766.028H0V767.306H127.778V766.028ZM254.917 638.889V766.667H256.194V638.889H254.917ZM255.556 766.028H127.778V767.306H255.556V766.028ZM382.694 638.889V766.667H383.972V638.889H382.694ZM383.333 766.028H255.556V767.306H383.333V766.028ZM510.472 638.889V766.667H511.75V638.889H510.472ZM511.111 766.028H383.333V767.306H511.111V766.028ZM638.25 638.889V766.667H639.528V638.889H638.25ZM638.889 766.028H511.111V767.306H638.889V766.028ZM766.028 638.889V766.667H767.306V638.889H766.028ZM766.667 766.028H638.889V767.306H766.667V766.028ZM893.806 638.889V766.667H895.083V638.889H893.806ZM894.444 766.028H766.667V767.306H894.444V766.028ZM1021.58 638.889V766.667H1022.86V638.889H1021.58ZM1022.22 766.028H894.444V767.306H1022.22V766.028ZM1149.36 638.889V766.667H1150.64V638.889H1149.36ZM1150 766.028H1022.22V767.306H1150V766.028ZM1277.14 638.889V766.667H1278.42V638.889H1277.14ZM1277.78 766.028H1150V767.306H1277.78V766.028ZM1404.92 638.889V766.667H1406.19V638.889H1404.92ZM1405.56 766.028H1277.78V767.306H1405.56V766.028ZM1532.69 638.889V766.667H1533.97V638.889H1532.69ZM1533.33 766.028H1405.56V767.306H1533.33V766.028ZM1660.47 638.889V766.667H1661.75V638.889H1660.47ZM1661.11 766.028H1533.33V767.306H1661.11V766.028ZM1788.25 638.889V766.667H1789.53V638.889H1788.25ZM1788.89 766.028H1661.11V767.306H1788.89V766.028ZM1916.67 766.028H1788.89V767.306H1916.67V766.028ZM127.139 766.667V894.444H128.417V766.667H127.139ZM127.778 893.806H0V895.083H127.778V893.806ZM254.917 766.667V894.444H256.194V766.667H254.917ZM255.556 893.806H127.778V895.083H255.556V893.806ZM382.694 766.667V894.444H383.972V766.667H382.694ZM383.333 893.806H255.556V895.083H383.333V893.806ZM510.472 766.667V894.444H511.75V766.667H510.472ZM511.111 893.806H383.333V895.083H511.111V893.806ZM638.25 766.667V894.444H639.528V766.667H638.25ZM638.889 893.806H511.111V895.083H638.889V893.806ZM766.028 766.667V894.444H767.306V766.667H766.028ZM766.667 893.806H638.889V895.083H766.667V893.806ZM893.806 766.667V894.444H895.083V766.667H893.806ZM894.444 893.806H766.667V895.083H894.444V893.806ZM1021.58 766.667V894.444H1022.86V766.667H1021.58ZM1022.22 893.806H894.444V895.083H1022.22V893.806ZM1149.36 766.667V894.444H1150.64V766.667H1149.36ZM1150 893.806H1022.22V895.083H1150V893.806ZM1277.14 766.667V894.444H1278.42V766.667H1277.14ZM1277.78 893.806H1150V895.083H1277.78V893.806ZM1404.92 766.667V894.444H1406.19V766.667H1404.92ZM1405.56 893.806H1277.78V895.083H1405.56V893.806ZM1532.69 766.667V894.444H1533.97V766.667H1532.69ZM1533.33 893.806H1405.56V895.083H1533.33V893.806ZM1660.47 766.667V894.444H1661.75V766.667H1660.47ZM1661.11 893.806H1533.33V895.083H1661.11V893.806ZM1788.25 766.667V894.444H1789.53V766.667H1788.25ZM1788.89 893.806H1661.11V895.083H1788.89V893.806ZM1916.67 893.806H1788.89V895.083H1916.67V893.806ZM127.139 894.444V1022.22H128.417V894.444H127.139ZM127.778 1021.58H0V1022.86H127.778V1021.58ZM254.917 894.444V1022.22H256.194V894.444H254.917ZM255.556 1021.58H127.778V1022.86H255.556V1021.58ZM382.694 894.444V1022.22H383.972V894.444H382.694ZM383.333 1021.58H255.556V1022.86H383.333V1021.58ZM510.472 894.444V1022.22H511.75V894.444H510.472ZM511.111 1021.58H383.333V1022.86H511.111V1021.58ZM638.25 894.444V1022.22H639.528V894.444H638.25ZM638.889 1021.58H511.111V1022.86H638.889V1021.58ZM766.028 894.444V1022.22H767.306V894.444H766.028ZM766.667 1021.58H638.889V1022.86H766.667V1021.58ZM893.806 894.444V1022.22H895.083V894.444H893.806ZM894.444 1021.58H766.667V1022.86H894.444V1021.58ZM1021.58 894.444V1022.22H1022.86V894.444H1021.58ZM1022.22 1021.58H894.444V1022.86H1022.22V1021.58ZM1149.36 894.444V1022.22H1150.64V894.444H1149.36ZM1150 1021.58H1022.22V1022.86H1150V1021.58ZM1277.14 894.444V1022.22H1278.42V894.444H1277.14ZM1277.78 1021.58H1150V1022.86H1277.78V1021.58ZM1404.92 894.444V1022.22H1406.19V894.444H1404.92ZM1405.56 1021.58H1277.78V1022.86H1405.56V1021.58ZM1532.69 894.444V1022.22H1533.97V894.444H1532.69ZM1533.33 1021.58H1405.56V1022.86H1533.33V1021.58ZM1660.47 894.444V1022.22H1661.75V894.444H1660.47ZM1661.11 1021.58H1533.33V1022.86H1661.11V1021.58ZM1788.25 894.444V1022.22H1789.53V894.444H1788.25ZM1788.89 1021.58H1661.11V1022.86H1788.89V1021.58ZM1916.67 1021.58H1788.89V1022.86H1916.67V1021.58ZM127.139 1022.22V1150H128.417V1022.22H127.139ZM254.917 1022.22V1150H256.194V1022.22H254.917ZM382.694 1022.22V1150H383.972V1022.22H382.694ZM510.472 1022.22V1150H511.75V1022.22H510.472ZM638.25 1022.22V1150H639.528V1022.22H638.25ZM766.028 1022.22V1150H767.306V1022.22H766.028ZM893.806 1022.22V1150H895.083V1022.22H893.806ZM1021.58 1022.22V1150H1022.86V1022.22H1021.58ZM1149.36 1022.22V1150H1150.64V1022.22H1149.36ZM1277.14 1022.22V1150H1278.42V1022.22H1277.14ZM1404.92 1022.22V1150H1406.19V1022.22H1404.92ZM1532.69 1022.22V1150H1533.97V1022.22H1532.69ZM1660.47 1022.22V1150H1661.75V1022.22H1660.47ZM1788.25 1022.22V1150H1789.53V1022.22H1788.25ZM0 0V-1.27778H-1.27778V0H0ZM1916.67 0H1917.94V-1.27778H1916.67V0ZM0 1150H-1.27778V1151.28H0V1150ZM1916.67 1150V1151.28H1917.94V1150H1916.67ZM0 1.27778H127.778V-1.27778H0V1.27778ZM1.27778 127.778V0H-1.27778V127.778H1.27778ZM127.778 1.27778H255.556V-1.27778H127.778V1.27778ZM255.556 1.27778H383.333V-1.27778H255.556V1.27778ZM383.333 1.27778H511.111V-1.27778H383.333V1.27778ZM511.111 1.27778H638.889V-1.27778H511.111V1.27778ZM638.889 1.27778H766.667V-1.27778H638.889V1.27778ZM766.667 1.27778H894.444V-1.27778H766.667V1.27778ZM894.444 1.27778H1022.22V-1.27778H894.444V1.27778ZM1022.22 1.27778H1150V-1.27778H1022.22V1.27778ZM1150 1.27778H1277.78V-1.27778H1150V1.27778ZM1277.78 1.27778H1405.56V-1.27778H1277.78V1.27778ZM1405.56 1.27778H1533.33V-1.27778H1405.56V1.27778ZM1533.33 1.27778H1661.11V-1.27778H1533.33V1.27778ZM1661.11 1.27778H1788.89V-1.27778H1661.11V1.27778ZM1788.89 1.27778H1916.67V-1.27778H1788.89V1.27778ZM1915.39 0V127.778H1917.94V0H1915.39ZM1.27778 255.556V127.778H-1.27778V255.556H1.27778ZM1915.39 127.778V255.556H1917.94V127.778H1915.39ZM1.27778 383.333V255.556H-1.27778V383.333H1.27778ZM1915.39 255.556V383.333H1917.94V255.556H1915.39ZM1.27778 511.111V383.333H-1.27778V511.111H1.27778ZM1915.39 383.333V511.111H1917.94V383.333H1915.39ZM1.27778 638.889V511.111H-1.27778V638.889H1.27778ZM1915.39 511.111V638.889H1917.94V511.111H1915.39ZM1.27778 766.667V638.889H-1.27778V766.667H1.27778ZM1915.39 638.889V766.667H1917.94V638.889H1915.39ZM1.27778 894.444V766.667H-1.27778V894.444H1.27778ZM1915.39 766.667V894.444H1917.94V766.667H1915.39ZM1.27778 1022.22V894.444H-1.27778V1022.22H1.27778ZM1915.39 894.444V1022.22H1917.94V894.444H1915.39ZM127.778 1148.72H0V1151.28H127.778V1148.72ZM1.27778 1150V1022.22H-1.27778V1150H1.27778ZM255.556 1148.72H127.778V1151.28H255.556V1148.72ZM383.333 1148.72H255.556V1151.28H383.333V1148.72ZM511.111 1148.72H383.333V1151.28H511.111V1148.72ZM638.889 1148.72H511.111V1151.28H638.889V1148.72ZM766.667 1148.72H638.889V1151.28H766.667V1148.72ZM894.444 1148.72H766.667V1151.28H894.444V1148.72ZM1022.22 1148.72H894.444V1151.28H1022.22V1148.72ZM1150 1148.72H1022.22V1151.28H1150V1148.72ZM1277.78 1148.72H1150V1151.28H1277.78V1148.72ZM1405.56 1148.72H1277.78V1151.28H1405.56V1148.72ZM1533.33 1148.72H1405.56V1151.28H1533.33V1148.72ZM1661.11 1148.72H1533.33V1151.28H1661.11V1148.72ZM1788.89 1148.72H1661.11V1151.28H1788.89V1148.72ZM1915.39 1022.22V1150H1917.94V1022.22H1915.39ZM1916.67 1148.72H1788.89V1151.28H1916.67V1148.72Z" fill="#E7E7E7" mask="url(#path-1-inside-1_1_6925)"/>
</g>
<defs>
<filter id="filter0_d_1_6925" x="-4" y="0" width="1924.67" height="1158" filterUnits="userSpaceOnUse" color-interpolation-filters="sRGB">
<feFlood flood-opacity="0" result="BackgroundImageFix"/>
<feColorMatrix in="SourceAlpha" type="matrix" values="0 0 0 0 0 0 0 0 0 0 0 0 0 0 0 0 0 0 127 0" result="hardAlpha"/>
<feOffset dy="4"/>
<feGaussianBlur stdDeviation="2"/>
<feComposite in2="hardAlpha" operator="out"/>
<feColorMatrix type="matrix" values="0 0 0 0 0 0 0 0 0 0 0 0 0 0 0 0 0 0 0.25 0"/>
<feBlend mode="normal" in2="BackgroundImageFix" result="effect1_dropShadow_1_6925"/>
<feBlend mode="normal" in="SourceGraphic" in2="effect1_dropShadow_1_6925" result="shape"/>
</filter>
</defs>
</svg>
