<svg width="40" height="40" viewBox="0 0 40 40" fill="none" xmlns="http://www.w3.org/2000/svg">
<g clip-path="url(#clip0_1_5348)">
<path d="M0 20C0 25.3043 2.10714 30.3914 5.85786 34.1421C9.60859 37.8929 14.6957 40 20 40C25.3043 40 30.3914 37.8929 34.1421 34.1421C37.8929 30.3914 40 25.3043 40 20C40 14.6957 37.8929 9.60859 34.1421 5.85786C30.3914 2.10714 25.3043 0 20 0C14.6957 0 9.60859 2.10714 5.85786 5.85786C2.10714 9.60859 0 14.6957 0 20Z" fill="#333333"/>
<path d="M29.6605 17.5194C27.7505 17.5194 25.9005 16.8994 24.3705 15.7594V23.7594C24.3705 27.8394 21.2205 31.1494 17.3405 31.1494C13.4605 31.1494 10.3105 27.8394 10.3105 23.7594C10.3105 19.6794 13.4605 16.3694 17.3405 16.3694C17.7305 16.3694 18.1105 16.3994 18.4705 16.4694V20.6994C18.1205 20.5594 17.7405 20.4894 17.3705 20.4894C15.6405 20.4894 14.2305 21.9594 14.2305 23.7894C14.2305 25.6194 15.6405 27.0894 17.3705 27.0894C19.1005 27.0894 20.5005 25.6194 20.5005 23.7894V7.89941H24.4205C24.4205 10.9594 26.7805 13.4294 29.6805 13.4294V17.5194H29.6605Z" fill="white"/>
</g>
<defs>
<clipPath id="clip0_1_5348">
<rect width="40" height="40" fill="white"/>
</clipPath>
</defs>
</svg>
