<svg width="40" height="40" viewBox="0 0 40 40" fill="none" xmlns="http://www.w3.org/2000/svg">
<path d="M20 0C8.95456 0 0 8.95456 0 20C0 31.0454 8.95456 40 20 40C31.0454 40 40 31.0454 40 20C40 8.95456 31.0454 0 20 0ZM30.3255 26.0234C30.3255 27.1275 29.3965 28.031 28.2606 28.031H11.7394C10.6035 28.031 9.67447 27.1276 9.67447 26.0234L9.68395 16.1049L19.7526 21.4444C19.8288 21.4847 19.9138 21.5057 20 21.5057C20.0862 21.5057 20.1712 21.4847 20.2474 21.4444L30.3255 16.0999V26.0234ZM20.005 19.5591L9.6851 13.9582C9.69512 12.8624 10.6102 11.969 11.7394 11.969H28.2607C29.3882 11.969 30.3122 12.8591 30.3256 13.9527L20.0051 19.5591H20.005Z" fill="black"/>
</svg>
