<svg width="17" height="17" viewBox="0 0 17 17" fill="none" xmlns="http://www.w3.org/2000/svg">
<g clip-path="url(#clip0_1_7202)">
<path d="M15.5279 6.98869L13.6143 13.7424C13.5017 14.0801 13.0515 14.4178 12.7138 14.4178H2.58321C2.47065 14.4178 2.35808 14.4178 2.24552 14.3052C2.24552 14.1927 2.13296 14.0801 2.24552 13.9675L4.15908 7.21382C4.27164 6.87613 4.72189 6.53844 5.05957 6.53844H15.1902C15.3027 6.53844 15.4153 6.53844 15.4153 6.65101C15.5279 6.65101 15.5279 6.76357 15.5279 6.98869ZM2.0204 2.59877C2.0204 2.26108 2.24552 2.03596 2.58321 2.03596H6.18519L7.19825 3.94952C7.19825 4.17464 7.42338 4.2872 7.6485 4.2872H13.8394C14.1771 4.2872 14.4022 4.51233 14.4022 4.85001V5.41282H5.05957C4.27164 5.41282 3.37114 6.0882 3.14602 6.98869L2.0204 10.8158V2.59877ZM16.4283 5.97563C16.2032 5.63795 15.8655 5.52539 15.5279 5.41282V4.85001C15.5279 3.94952 14.7399 3.16158 13.8394 3.16158H7.98619L6.97313 1.24803C6.97313 1.0229 6.74801 0.910339 6.52288 0.910339H2.58321C1.68271 0.910339 0.894775 1.69827 0.894775 2.59877V13.855C0.894775 14.4178 1.23246 14.9806 1.57015 15.2057H1.68271C1.90783 15.4309 2.24552 15.5434 2.58321 15.5434H12.7138C13.6143 15.5434 14.4022 14.868 14.7399 13.9675L16.6535 7.21382C16.766 6.76357 16.6535 6.31332 16.4283 5.97563Z" fill="black"/>
</g>
<defs>
<clipPath id="clip0_1_7202">
<rect width="15.7895" height="15.7895" fill="white" transform="translate(0.894775 0.894714)"/>
</clipPath>
</defs>
</svg>
