<svg width="269" height="72" viewBox="0 0 269 72" fill="none" xmlns="http://www.w3.org/2000/svg">
<path d="M22.34 14C10 14 0 24.01 0 36.34C0 48.67 10.01 58.68 22.34 58.68C34.67 58.68 44.68 48.67 44.68 36.34C44.68 24.01 34.67 14 22.34 14Z" fill="#B1DCCC"/>
<path d="M64.36 18.728H87.736V23.528H69.976V33.032H86.728V37.832H69.976V53H64.36V18.728ZM92.2975 18.056H97.7695V53H92.2975V18.056ZM115.525 27.512C119.269 27.512 122.293 28.712 124.597 31.208C126.853 33.656 128.005 36.776 128.005 40.616C128.005 44.408 126.853 47.528 124.645 49.928C122.341 52.424 119.269 53.672 115.525 53.672C111.733 53.672 108.709 52.424 106.405 49.928C104.149 47.528 103.045 44.408 103.045 40.616C103.045 36.776 104.149 33.656 106.453 31.208C108.709 28.712 111.733 27.512 115.525 27.512ZM115.525 31.976C113.221 31.976 111.493 32.84 110.245 34.664C109.189 36.2 108.661 38.216 108.661 40.616C108.661 43.016 109.189 44.984 110.245 46.52C111.493 48.296 113.221 49.208 115.525 49.208C117.781 49.208 119.557 48.296 120.805 46.52C121.861 44.936 122.437 42.968 122.437 40.616C122.437 38.216 121.861 36.2 120.805 34.664C119.557 32.84 117.781 31.976 115.525 31.976ZM144.978 27.512C148.626 27.512 151.218 28.856 152.802 31.544C153.954 30.008 155.154 28.952 156.402 28.376C157.506 27.8 158.898 27.512 160.578 27.512C163.122 27.512 165.234 28.328 166.962 30.056C168.594 31.784 169.458 33.992 169.458 36.728V53H163.986V37.688C163.986 35.72 163.554 34.28 162.738 33.416C161.874 32.504 160.53 32.072 158.61 32.072C157.266 32.072 156.162 32.552 155.25 33.608C154.29 34.616 153.858 36.008 153.858 37.832V53H148.386V37.736C148.386 33.944 146.754 32.072 143.49 32.072C141.906 32.072 140.658 32.648 139.698 33.896C138.738 35.048 138.258 36.488 138.258 38.12V53H132.786V28.184H138.258V30.728C140.322 28.568 142.578 27.512 144.978 27.512ZM175.208 28.184H180.68V43.304C180.68 45.32 181.064 46.76 181.928 47.72C182.792 48.632 184.136 49.112 186.056 49.112C187.256 49.112 188.408 48.584 189.512 47.576C190.616 46.52 191.432 45.128 191.912 43.352V28.184H197.384V53H191.912V49.784C189.8 52.376 187.208 53.672 184.136 53.672C178.184 53.672 175.208 50.312 175.208 43.64V28.184ZM212.506 27.512C219.034 27.512 222.634 30.104 223.21 35.384H217.882C217.498 34.136 216.922 33.224 216.154 32.744C215.338 32.216 214.09 31.976 212.41 31.976C210.97 31.976 209.866 32.168 209.146 32.6C208.282 33.032 207.898 33.704 207.898 34.664C207.898 35.432 208.522 36.152 209.866 36.728C210.682 37.064 212.314 37.544 214.81 38.168C217.594 38.84 219.706 39.608 221.05 40.52C223.018 41.768 224.026 43.544 224.026 45.752C224.026 51.032 220.282 53.672 212.842 53.672C205.93 53.672 202.234 50.744 201.706 44.936H207.034C207.322 46.52 207.898 47.624 208.714 48.296C209.53 48.872 210.826 49.208 212.65 49.208C216.49 49.208 218.41 48.152 218.41 46.136C218.41 44.984 217.69 44.072 216.25 43.4C215.482 43.016 213.85 42.584 211.354 42.008C208.426 41.336 206.362 40.616 205.162 39.848C203.242 38.648 202.282 36.968 202.282 34.808C202.282 32.504 203.194 30.728 205.114 29.48C206.986 28.136 209.434 27.512 212.506 27.512ZM238.924 27.512C243.004 27.512 246.124 28.856 248.284 31.64C250.252 34.136 251.26 37.64 251.26 42.104H232.684C232.876 44.408 233.5 46.184 234.556 47.384C235.612 48.584 237.148 49.208 239.116 49.208C240.796 49.208 242.14 48.824 243.196 48.056C244.012 47.432 244.732 46.424 245.404 45.032H250.876C250.3 47.336 249.148 49.304 247.42 50.84C245.212 52.712 242.476 53.672 239.164 53.672C235.468 53.672 232.54 52.52 230.38 50.264C228.076 47.912 226.924 44.696 226.924 40.568C226.924 36.872 227.98 33.8 230.188 31.304C232.3 28.76 235.228 27.512 238.924 27.512ZM239.068 31.976C237.244 31.976 235.852 32.456 234.796 33.512C233.788 34.52 233.116 36.008 232.78 37.976H245.548C245.068 33.944 242.908 31.976 239.068 31.976Z" fill="black"/>
</svg>
