<svg width="24" height="24" viewBox="0 0 24 24" fill="none" xmlns="http://www.w3.org/2000/svg">
<path d="M17.2562 1.74023H6.75624C4.90824 1.74023 3.39624 3.25223 3.39624 5.10023V18.9602C3.39624 20.8082 4.90824 22.3202 6.75624 22.3202H17.2562C19.1042 22.3202 20.6162 20.8082 20.6162 18.9602V5.10023C20.6162 3.25223 19.1042 1.74023 17.2562 1.74023ZM6.75624 3.66023H17.2562C18.0482 3.66023 18.6962 4.30823 18.6962 5.10023V13.8962H5.31624V5.10023C5.31624 4.30823 5.95224 3.66023 6.75624 3.66023ZM17.2562 20.4002H6.75624C5.96424 20.4002 5.31624 19.7522 5.31624 18.9602V15.8042H18.6962V18.9602C18.6962 19.7522 18.0482 20.4002 17.2562 20.4002Z" fill="black"/>
<path d="M11.0403 18.2159C11.0403 18.4705 11.1414 18.7146 11.3215 18.8947C11.5015 19.0747 11.7457 19.1759 12.0003 19.1759C12.2549 19.1759 12.4991 19.0747 12.6791 18.8947C12.8591 18.7146 12.9603 18.4705 12.9603 18.2159C12.9603 17.9613 12.8591 17.7171 12.6791 17.537C12.4991 17.357 12.2549 17.2559 12.0003 17.2559C11.7457 17.2559 11.5015 17.357 11.3215 17.537C11.1414 17.7171 11.0403 17.9613 11.0403 18.2159Z" fill="black"/>
</svg>
