<svg width="20" height="20" viewBox="0 0 20 20" fill="none" xmlns="http://www.w3.org/2000/svg">
<path d="M10.0759 1.375C5.22522 1.375 1.29297 5.30725 1.29297 10.1579C1.29297 15.0087 5.2252 18.9409 10.0759 18.9409C14.9266 18.9409 18.8588 15.0087 18.8588 10.1579C18.8588 5.30728 14.9266 1.375 10.0759 1.375ZM10.0759 18.0626C5.71028 18.0626 2.17124 14.5235 2.17124 10.1579C2.17124 5.79234 5.71028 2.2533 10.0759 2.2533C14.4415 2.2533 17.9806 5.79234 17.9806 10.1579C17.9806 14.5235 14.4415 18.0626 10.0759 18.0626ZM14.0627 9.53548C12.6959 8.60547 10.2175 7.21346 8.80627 6.35095C8.22768 5.98609 7.74114 6.13261 7.69445 6.77704C7.66061 8.5031 7.69445 11.8335 7.69445 13.5894C7.72381 14.2436 8.30059 14.3299 8.80118 14.0672C10.2108 13.2132 12.6336 11.7454 14.0504 10.887C14.0411 10.8814 15.1261 10.2846 14.0627 9.53548Z" fill="#272636"/>
</svg>
