<svg width="18" height="18" viewBox="0 0 18 18" fill="none" xmlns="http://www.w3.org/2000/svg">
<path d="M16.0104 6.36895L11.6314 1.98993C11.4278 1.78634 11.1518 1.67194 10.8639 1.67188H2.75935C2.47145 1.67188 2.19535 1.78624 1.99177 1.98982C1.7882 2.19339 1.67383 2.4695 1.67383 2.7574V15.241C1.67383 15.5289 1.7882 15.805 1.99177 16.0085C2.19535 16.2121 2.47145 16.3265 2.75935 16.3265H15.2429C15.5308 16.3265 15.8069 16.2121 16.0105 16.0085C16.2141 15.805 16.3284 15.5289 16.3284 15.241V7.13641C16.3284 6.84854 16.214 6.57248 16.0104 6.36895ZM5.20179 2.7574H8.45837V4.65707H5.20179V2.7574ZM12.8005 15.241H5.20179V12.7985H12.8005V15.241ZM15.2429 15.241H13.886V12.2558C13.886 12.1118 13.8288 11.9738 13.727 11.872C13.6252 11.7702 13.4872 11.713 13.3432 11.713H4.65903C4.51508 11.713 4.37702 11.7702 4.27523 11.872C4.17345 11.9738 4.11626 12.1118 4.11626 12.2558V15.241H2.75935V2.7574H4.11626V5.19984C4.11626 5.34379 4.17345 5.48184 4.27523 5.58363C4.37702 5.68541 4.51508 5.7426 4.65903 5.7426H9.00113C9.14508 5.7426 9.28313 5.68541 9.38492 5.58363C9.48671 5.48184 9.54389 5.34379 9.54389 5.19984V2.7574H10.8639L15.2429 7.13641V15.241Z" fill="black"/>
</svg>
