<svg width="13" height="13" viewBox="0 0 13 13" fill="none" xmlns="http://www.w3.org/2000/svg">
<path d="M12.1281 5.72149C12.0701 2.55655 9.66723 0 6.71667 0H6.28333C3.33277 0 0.929933 2.55655 0.871867 5.72104C0.3536 6.02767 0 6.59358 0 7.24798V8.13291C0 9.10898 0.7774 9.90276 1.73333 9.90276C2.68927 9.90276 3.46667 9.10898 3.46667 8.13291V7.24798C3.46601 6.78187 3.28537 6.33481 2.96396 6.00381C2.64255 5.67281 2.20628 5.48456 1.7498 5.4799C1.91923 2.91583 3.88527 0.884926 6.28333 0.884926H6.71667C9.11517 0.884926 11.0808 2.91583 11.2502 5.4799C10.7937 5.48456 10.3575 5.67281 10.036 6.00381C9.71463 6.33481 9.534 6.78187 9.53333 7.24798V8.13291C9.53333 8.932 10.0577 9.601 10.7709 9.82002C10.1272 10.6852 9.208 11.2939 8.1718 11.5412C8.10026 11.3221 7.96314 11.1316 7.7798 10.9963C7.59646 10.8611 7.37616 10.7882 7.15 10.7877C6.86268 10.7877 6.58713 10.9042 6.38397 11.1117C6.1808 11.3191 6.06667 11.6005 6.06667 11.8938C6.06667 12.1872 6.1808 12.4686 6.38397 12.676C6.58713 12.8835 6.86268 13 7.15 13C7.33455 12.9997 7.51595 12.9512 7.67686 12.8589C7.83778 12.7666 7.97282 12.6338 8.0691 12.473C8.85003 12.3335 9.59175 12.0217 10.2425 11.5594C10.8933 11.0971 11.4374 10.4953 11.8369 9.79613C12.5121 9.55454 13 8.90412 13 8.13291V7.24798C13 6.59358 12.6464 6.02767 12.1281 5.72149ZM2.6 7.24798V8.13291C2.6 8.62095 2.2113 9.01783 1.73333 9.01783C1.25537 9.01783 0.866667 8.62095 0.866667 8.13291V7.24798C0.866667 6.75995 1.25537 6.36306 1.73333 6.36306C2.2113 6.36306 2.6 6.75995 2.6 7.24798ZM12.1333 8.13291C12.1333 8.60723 11.765 8.99261 11.3057 9.01385L11.2719 8.99748C11.2688 9.00456 11.2641 9.01031 11.261 9.01695C11.0323 9.01543 10.8134 8.92165 10.6522 8.75605C10.4909 8.59045 10.4002 8.36646 10.4 8.13291V7.24798C10.4 6.75995 10.7887 6.36306 11.2667 6.36306C11.7446 6.36306 12.1333 6.75995 12.1333 7.24798V8.13291Z" fill="white"/>
</svg>
