<svg width="40" height="40" viewBox="0 0 40 40" fill="none" xmlns="http://www.w3.org/2000/svg">
<g clip-path="url(#clip0_1_5353)">
<path d="M13.1783 13.3525C12.4847 13.3525 11.791 13.815 11.791 14.5086C11.791 15.2022 12.4847 15.6647 13.1783 15.6647C13.8719 15.6647 14.3344 15.2022 14.3344 14.5086C14.3344 13.7861 13.8719 13.3525 13.1783 13.3525ZM22.5714 20.0577C22.1089 20.0577 21.6754 20.5491 21.6754 20.9826C21.6754 21.4739 22.1378 21.9075 22.5714 21.9075C23.265 21.9075 23.7274 21.445 23.7274 20.9826C23.7274 20.5202 23.265 20.0577 22.5714 20.0577ZM19.5945 15.6647C20.2881 15.6647 20.7506 15.1733 20.7506 14.5086C20.7506 13.815 20.2881 13.3525 19.5945 13.3525C18.9008 13.3525 18.2072 13.815 18.2072 14.5086C18.2072 15.2022 18.9008 15.6647 19.5945 15.6647ZM27.6003 20.0577C27.1378 20.0577 26.7043 20.5491 26.7043 20.9826C26.7043 21.4739 27.1667 21.9075 27.6003 21.9075C28.2939 21.9075 28.7563 21.445 28.7563 20.9826C28.7563 20.5202 28.2939 20.0577 27.6003 20.0577Z" fill="#28C445"/>
<path d="M19.9422 0.115234C8.93064 0.115234 0 9.04587 0 20.0574C0 31.069 8.93064 39.9996 19.9422 39.9996C30.9538 39.9996 39.8844 31.069 39.8844 20.0574C39.8844 9.04587 30.9538 0.115234 19.9422 0.115234ZM16.1561 25.173C15 25.173 14.0751 24.9418 12.9769 24.6817L9.79769 26.3002L10.6936 23.4967C8.4104 21.8782 7.02312 19.7684 7.02312 17.254C7.02312 12.832 11.1561 9.36379 16.1561 9.36379C20.6358 9.36379 24.5954 12.1384 25.3757 15.8667C25.0867 15.8378 24.7977 15.8089 24.5087 15.8089C20.1734 15.8667 16.763 19.1326 16.763 23.1788C16.763 23.8436 16.8786 24.4794 17.052 25.1152C16.763 25.1441 16.4451 25.173 16.1561 25.173ZM29.6821 28.41L30.3757 30.7222L27.8902 29.3349C26.9942 29.5661 26.0694 29.7973 25.1445 29.7973C20.7803 29.7973 17.341 26.7915 17.341 23.0632C17.3121 19.3638 20.7514 16.358 25.0867 16.358C29.2197 16.358 32.8613 19.3927 32.8613 23.0921C32.8613 25.173 31.5029 27.0227 29.6821 28.41Z" fill="#28C445"/>
</g>
<defs>
<clipPath id="clip0_1_5353">
<rect width="40" height="40" fill="white"/>
</clipPath>
</defs>
</svg>
